<svg width="40" height="40" fill="none" xmlns="http://www.w3.org/2000/svg"><g clip-path="url(#clip0_3840_18573)" fill="#DCB62F"><path d="M32.728 4.545v-2.71c0-.81.315-1.237.895-1.254.605-.017.938.435.938 1.253v4.56c0 .827-.333 1.16-1.168 1.16h-4.774c-.4 0-.776-.12-.904-.512-.085-.264-.06-.614.034-.878.137-.35.495-.435.853-.435h2.088a.834.834 0 00.452-.12c-.648-.425-1.27-.877-1.935-1.269-10.656-6.299-24.518-.222-26.99 11.907-1.27 6.205.34 11.694 4.663 16.356.068.077.136.145.204.213.4.444.41 1.006.017 1.364-.383.35-.946.341-1.321-.11-.853-1.006-1.765-1.978-2.49-3.078-2.702-4.09-3.725-8.6-3.162-13.466C1.074 9.335 7.28 2.396 15.345.564 21.595-.859 27.28.42 32.37 4.306c.102.06.187.12.358.239z"/><path d="M7.827 23.175h.571c.98 0 1.96-.008 2.941.009.588.008.98.392.99.903.008.512-.384.912-.973.92a239.7 239.7 0 01-4.944 0c-.665-.008-1.015-.477-.947-1.142.06-.613.29-1.176.725-1.593.52-.503 1.091-.946 1.654-1.398.358-.281.75-.512 1.117-.776.298-.213.597-.443.86-.69.683-.648.853-1.398.453-1.97-.401-.579-1.398-.817-2.123-.425-.358.187-.674.511-.92.844-.384.52-.862.724-1.33.443-.47-.282-.563-.81-.248-1.373.955-1.696 3.095-2.386 4.868-1.568 1.696.784 2.344 2.839 1.304 4.424-.435.656-1.074 1.193-1.688 1.713-.58.494-1.244.887-1.875 1.33-.12.068-.222.17-.435.35zm11.432-2.955c.75.025 1.637-.102 1.628.929-.008 1.014-.886.903-1.637.903 0 .878.017 1.713-.008 2.549-.017.741-.733 1.159-1.347.801-.324-.188-.46-.486-.46-.852v-2.49h-.418c-1.049 0-2.097-.008-3.154 0-.418 0-.75-.144-.938-.528-.188-.375-.086-.715.162-1.022 1.5-1.867 3-3.742 4.501-5.609.273-.34.63-.486 1.057-.332.426.153.605.486.605.929v4.21c.009.145.009.299.009.512zm-3.59-.009h1.74v-2.173c-.605.75-1.142 1.432-1.74 2.173zm16.599-3.383h-2.89c-.17 0-.341 0-.512-.034a.892.892 0 01-.733-.87c-.008-.443.298-.81.75-.895.094-.017.196-.025.299-.025 1.432 0 2.864-.009 4.305 0 .86.008 1.253.605.92 1.406-1.09 2.634-2.19 5.259-3.282 7.893-.221.528-.596.767-1.04.699-.622-.103-.929-.7-.665-1.338.452-1.1.912-2.2 1.373-3.299.494-1.15.972-2.301 1.475-3.537zm-9.821 8.128c.204-1.03.418-2.139.64-3.255l1.355-6.76c.136-.69.537-1.04 1.074-.946.546.094.86.563.742 1.134-.478 2.404-.955 4.816-1.441 7.22-.188.962-.375 1.917-.58 2.88-.12.554-.545.87-1.04.784-.469-.085-.776-.468-.75-1.057zm15.669-.022c.665 0 1.125.537.955 1.09a18.983 18.983 0 01-.708 1.91c-.196.46-.699.63-1.142.451-.46-.187-.682-.664-.503-1.159.196-.57.418-1.142.64-1.713.136-.375.426-.57.758-.58zm-1.399 5.813c-.008.451-1.287 2.164-1.713 2.292-.384.111-.742.034-.997-.298-.256-.324-.29-.69-.06-1.031a21.64 21.64 0 011.202-1.594c.255-.316.614-.392.997-.239.367.154.58.486.571.87zm-10.87 8.435c-.452-.085-.81-.366-.912-.767-.102-.418.051-.852.435-1.014.64-.273 1.295-.512 1.952-.725.392-.128.81.102.997.469.188.366.136.886-.222 1.074-.716.375-1.491.648-2.25.963zm12.627-24.998c.417.008.758.255.86.69.154.605.282 1.219.384 1.833.085.52-.222.937-.716 1.04-.46.102-.912-.171-1.04-.657a23.4 23.4 0 01-.4-1.866c-.086-.597.34-1.049.912-1.04zm-28.27 21.222c.69.35 1.56.64 2.208 1.296.28.29.204.69-.035 1.023-.23.315-.664.468-1.022.29a23.55 23.55 0 01-1.824-.998c-.35-.213-.452-.656-.307-1.023.145-.375.426-.58.98-.588zm29.778-14.334c-.035.426-.069.852-.12 1.27-.06.545-.468.878-.988.844-.495-.043-.836-.418-.81-.963.017-.58.06-1.16.11-1.74.052-.579.444-.937.972-.903.52.035.861.444.844 1.032-.008.153-.025.315-.034.469.017-.01.017-.01.026-.01zM33.18 34.725c-.205.307-.316.58-.512.75-.444.375-.912.716-1.39 1.048-.477.333-1.014.239-1.312-.187-.29-.418-.205-.93.238-1.27.46-.358.93-.708 1.398-1.049.316-.23.682-.298.989-.06.23.18.375.478.588.768zm4.91-23.217c.008.562-.222.895-.614 1.031-.375.128-.801.026-1.014-.332a24.01 24.01 0 01-.972-1.79c-.179-.358-.034-.784.273-1.032.315-.247.784-.306 1.065-.034.64.631.955 1.475 1.262 2.157zM15.184 37.547c.613.136 1.32.264 2.02.46.409.12.596.58.51 1.006-.084.418-.45.767-.886.699a19.401 19.401 0 01-2.113-.452c-.426-.12-.623-.571-.537-.989.085-.443.443-.724 1.005-.724zm5.865 2.42c-.188.008-.367.034-.554.034-.503-.009-.887-.35-.92-.819-.043-.503.264-.92.783-.98.648-.076 1.296-.11 1.944-.128a.856.856 0 01.86.819.893.893 0 01-.767.963c-.221.034-.451.06-.673.076-.222.017-.452.026-.673.035z"/></g><defs><clipPath id="clip0_3840_18573"><path fill="#fff" d="M0 0h40v40H0z"/></clipPath></defs></svg>