<svg width="28" height="26" fill="none" xmlns="http://www.w3.org/2000/svg"><g clip-path="url(#clip0_3840_17583)"><path d="M6.001 20.998c-.508 0-.975.002-1.441 0-2.571-.01-4.553-1.987-4.556-4.553-.005-3.967-.005-7.934 0-11.9C.007 1.995 1.99.006 4.538.004c6.31-.005 12.619-.006 18.928 0C26 .006 27.99 1.991 27.994 4.519c.008 3.988.008 7.976 0 11.962-.005 2.527-1.997 4.51-4.53 4.515-3.258.006-6.517.003-9.776-.002a.8.8 0 00-.563.193c-1.712 1.44-3.434 2.87-5.153 4.303-.112.094-.222.19-.338.278-.326.247-.683.307-1.056.128-.382-.183-.575-.501-.576-.925-.003-1.197 0-2.394 0-3.592v-.381zM10 10.506a2.002 2.002 0 00-2-2.004 2 2 0 00-1.995 1.976 2.003 2.003 0 001.983 2.02A2.003 2.003 0 0010 10.506zm4.01-2.004A2.002 2.002 0 0012 10.498c0 1.091.887 1.99 1.973 2a2.004 2.004 0 002.022-1.982 2.001 2.001 0 00-1.988-2.014zm5.968 3.996a2.005 2.005 0 002.018-1.986 2.002 2.002 0 00-1.993-2.01A2.002 2.002 0 0018 10.472a2.003 2.003 0 001.977 2.026z" fill="#F8F8F8"/></g><defs><clipPath id="clip0_3840_17583"><path fill="#fff" d="M0 0h28v26H0z"/></clipPath></defs></svg>