<svg width="14" height="14" fill="none" xmlns="http://www.w3.org/2000/svg"><g clip-path="url(#clip0_3840_17560)" fill="#fff"><path d="M9.281 7.07l4.72 2.984V3.961l-4.72 3.11zM0 3.96v6.094l4.72-2.983L0 3.96zm13.124-1.772H.874a.864.864 0 00-.849.744L7 7.527l6.974-4.595a.864.864 0 00-.849-.744zM8.478 7.599l-1.238.815a.437.437 0 01-.481 0L5.52 7.598.027 11.072a.863.863 0 00.847.739h12.25c.435 0 .78-.323.847-.739L8.478 7.6z"/></g><defs><clipPath id="clip0_3840_17560"><path fill="#fff" d="M0 0h14v14H0z"/></clipPath></defs></svg>