<svg width="14" height="14" viewBox="0 0 14 14" fill="none" xmlns="http://www.w3.org/2000/svg">
<g clip-path="url(#clip0_3840_17560)">
<path d="M9.28125 7.07069L14.001 10.0544V3.96094L9.28125 7.07069Z" fill="white"/>
<path d="M0 3.96094V10.0544L4.71975 7.07069L0 3.96094Z" fill="white"/>
<path d="M13.1241 2.1875H0.874141C0.437516 2.1875 0.0910156 2.513 0.0253906 2.93213L6.99914 7.52675L13.9729 2.93213C13.9073 2.513 13.5608 2.1875 13.1241 2.1875Z" fill="white"/>
<path d="M8.47809 7.59853L7.23997 8.41403C7.16647 8.46216 7.08334 8.48578 6.99934 8.48578C6.91534 8.48578 6.83222 8.46216 6.75872 8.41403L5.52059 7.59766L0.0273438 11.0723C0.0947187 11.4879 0.439469 11.8108 0.874344 11.8108H13.1243C13.5592 11.8108 13.904 11.4879 13.9713 11.0723L8.47809 7.59853Z" fill="white"/>
</g>
<defs>
<clipPath id="clip0_3840_17560">
<rect width="14" height="14" fill="white"/>
</clipPath>
</defs>
</svg>
