<svg width="14" height="14" viewBox="0 0 14 14" fill="none" xmlns="http://www.w3.org/2000/svg">
<g clip-path="url(#clip0_3840_17537)">
<path d="M7.17598 0.00291797C4.33287 -0.0928965 1.99805 2.18329 1.99805 5.00476C1.99805 8.20681 5.07092 10.5306 6.79327 13.8726C6.88071 14.0423 7.12498 14.0425 7.21272 13.8729C8.77083 10.8658 11.4338 8.84933 11.9274 5.95233C12.4384 2.95449 10.2153 0.105384 7.17598 0.00291797ZM7.00275 7.62626C5.55496 7.62626 4.38125 6.45252 4.38125 5.00476C4.38125 3.55699 5.55498 2.38326 7.00275 2.38326C8.45054 2.38326 9.62428 3.55699 9.62428 5.00476C9.62428 6.45252 8.45054 7.62626 7.00275 7.62626Z" fill="white"/>
</g>
<defs>
<clipPath id="clip0_3840_17537">
<rect width="14" height="14" fill="white"/>
</clipPath>
</defs>
</svg>
