<svg width="90" height="66" fill="none" xmlns="http://www.w3.org/2000/svg"><path d="M9.02 46.255c-3.276-1.13-5.828-2.617-7.657-4.464l1.418-2.32c1.889 1.666 4.323 3.065 7.302 4.195 2.98 1.132 6.153 1.696 9.516 1.696 4.959 0 8.617-.847 10.978-2.546 2.36-1.695 3.54-4.062 3.54-7.096 0-2.141-.634-3.837-1.902-5.088-1.27-1.25-2.849-2.171-4.735-2.768-1.889-.593-4.427-1.19-7.613-1.786-3.719-.715-6.684-1.443-8.898-2.188-2.213-.742-4.089-1.949-5.62-3.614-1.535-1.666-2.301-3.986-2.301-6.963 0-3.51 1.431-6.44 4.293-8.792C10.201 2.176 14.377 1 19.864 1c2.832 0 5.664.432 8.5 1.295 2.831.863 5.135 2.009 6.904 3.435l-1.505 2.32c-1.829-1.43-3.969-2.512-6.416-3.257a25.968 25.968 0 00-7.57-1.116c-4.544 0-7.968.88-10.269 2.633-2.3 1.757-3.453 4.063-3.453 6.918 0 2.262.648 4.049 1.946 5.357 1.297 1.308 2.906 2.276 4.825 2.9 1.916.624 4.527 1.264 7.834 1.918 3.54.655 6.403 1.356 8.586 2.098 2.184.744 4.03 1.918 5.534 3.526 1.505 1.608 2.257 3.837 2.257 6.695 0 3.75-1.505 6.726-4.514 8.928-3.01 2.201-7.346 3.303-13.013 3.303-3.719-.002-7.213-.566-10.49-1.698zM77.937 3.99c3.421 1.996 6.123 4.791 8.099 8.392 1.976 3.6 2.966 7.663 2.966 12.184 0 4.524-.99 8.556-2.966 12.094-1.98 3.54-4.678 6.308-8.099 8.3-3.423 1.996-7.229 2.99-11.418 2.99-4.427 0-8.396-1.129-11.907-3.391-3.511-2.262-6.123-5.357-7.834-9.282V65h-2.922V1.357h2.832v12.677c1.712-4.046 4.323-7.232 7.834-9.552C58.032 2.16 62.032 1 66.516 1c4.19 0 7.998.998 11.421 2.99zm-1.46 38.65c2.979-1.753 5.326-4.194 7.037-7.319 1.712-3.125 2.568-6.71 2.568-10.755 0-4.046-.856-7.646-2.567-10.802-1.712-3.152-4.06-5.607-7.039-7.363-2.98-1.754-6.33-2.633-10.047-2.633-3.718 0-7.069.88-10.048 2.633-2.982 1.756-5.326 4.21-7.038 7.363-1.712 3.156-2.568 6.753-2.568 10.802 0 4.049.856 7.633 2.568 10.755 1.712 3.125 4.056 5.566 7.038 7.32 2.98 1.756 6.33 2.633 10.048 2.633s7.068-.877 10.047-2.633z" fill="#DCB62F" stroke="#DCB62F" stroke-width="2"/><path d="M2.224 64.52c-.523-.2-.932-.461-1.224-.78l.259-.431c.278.296.651.535 1.123.722.472.187.965.28 1.486.28.752 0 1.322-.142 1.703-.43.385-.29.575-.666.575-1.128 0-.357-.1-.64-.305-.855a2.024 2.024 0 00-.755-.489c-.302-.112-.709-.23-1.218-.352a12.02 12.02 0 01-1.396-.42 2.214 2.214 0 01-.891-.632c-.246-.286-.368-.665-.368-1.144 0-.387.1-.742.305-1.063.204-.322.512-.58.932-.77.417-.19.938-.286 1.565-.286.436 0 .864.066 1.286.193.42.129.786.302 1.096.522l-.215.467a3.633 3.633 0 00-1.044-.5 3.844 3.844 0 00-1.123-.17c-.73 0-1.284.148-1.66.445a1.397 1.397 0 00-.564 1.149c0 .357.1.64.305.854.204.212.455.377.755.49.3.112.711.236 1.23.365a11.5 11.5 0 011.387.42c.346.138.64.344.886.622.245.278.368.651.368 1.121a1.9 1.9 0 01-.311 1.059c-.207.318-.526.574-.954.764-.428.19-.957.285-1.581.285a4.702 4.702 0 01-1.652-.307zm9.472-.574c-.553-.586-.829-1.438-.829-2.562v-4.587h.575v4.565c0 .979.221 1.713.665 2.196.445.484 1.088.729 1.93.729.834 0 1.475-.242 1.92-.729.444-.486.665-1.217.665-2.196v-4.565h.575v4.587c0 1.124-.278 1.976-.834 2.562-.556.585-1.336.877-2.336.877-1 0-1.778-.294-2.331-.877zm10.449-7.149h.575v7.443h4.55v.522h-5.125v-7.965zm9.954 7.497a3.864 3.864 0 01-1.472-1.451 4.028 4.028 0 01-.537-2.062c0-.758.177-1.445.537-2.061.357-.616.848-1.1 1.472-1.451a4.204 4.204 0 012.099-.53c.774 0 1.474.175 2.099.524a3.83 3.83 0 011.472 1.446c.357.616.537 1.306.537 2.072 0 .767-.18 1.457-.537 2.073a3.83 3.83 0 01-1.472 1.445c-.624.35-1.325.523-2.1.523a4.174 4.174 0 01-2.098-.528zm3.895-.462a3.325 3.325 0 001.265-1.258 3.53 3.53 0 00.463-1.793c0-.66-.155-1.258-.463-1.792a3.344 3.344 0 00-1.265-1.258 3.584 3.584 0 00-1.794-.457 3.59 3.59 0 00-1.801.456 3.34 3.34 0 00-1.27 1.26 3.53 3.53 0 00-.464 1.791c0 .66.155 1.26.463 1.793.308.535.73.953 1.27 1.258.538.305 1.14.456 1.802.456.663 0 1.26-.15 1.794-.456zm21.383-6.323c.564.472.848 1.132.848 1.973 0 .836-.284 1.49-.848 1.963-.564.475-1.344.712-2.336.712h-2.257v2.608h-.575v-7.968h2.832c.992 0 1.772.236 2.336.712zm-.406 3.567c.444-.37.665-.904.665-1.594 0-.69-.22-1.223-.665-1.6-.444-.376-1.087-.563-1.93-.563h-2.257v4.315h2.257c.843 0 1.486-.184 1.93-.558zm9.606 1.446h-4.582l-1.006 2.243h-.622l3.637-7.968h.575l3.633 7.968h-.621l-1.014-2.243zm-.216-.49l-2.077-4.597-2.066 4.598h4.143zm10.691 2.733l-1.887-2.663a5.635 5.635 0 01-.768.057H72.14v2.606h-.576v-7.968h2.833c.992 0 1.771.236 2.336.712.564.472.847 1.132.847 1.973 0 .63-.16 1.16-.48 1.589-.318.429-.776.731-1.37.904l1.976 2.79h-.654zm-2.653-3.12c.843 0 1.486-.187 1.93-.563.445-.377.665-.91.665-1.6 0-.69-.22-1.223-.665-1.6-.444-.376-1.087-.563-1.93-.563h-2.257v4.326H74.4zm9.561-.808l-1.772 1.833v2.095h-.575v-7.968h.575v5.123l4.934-5.123h.7l-3.477 3.62 3.715 4.348h-.7l-3.4-3.928z" fill="#fff"/></svg>