<svg width="16" height="16" viewBox="0 0 16 16" fill="none" xmlns="http://www.w3.org/2000/svg">
<g clip-path="url(#clip0_3840_18434)">
<path d="M11.6689 0H4.33105C1.94287 0 0 1.94287 0 4.33105V11.669C0 14.0571 1.94287 16 4.33105 16H11.669C14.0571 16 16 14.0571 16 11.669V4.33105C16 1.94287 14.0571 0 11.6689 0V0ZM7.99998 12.3749C5.58764 12.3749 3.62512 10.4123 3.62512 7.99998C3.62512 5.58764 5.58764 3.62512 7.99998 3.62512C10.4123 3.62512 12.3749 5.58764 12.3749 7.99998C12.3749 10.4123 10.4123 12.3749 7.99998 12.3749V12.3749ZM12.4795 4.65685C11.7666 4.65685 11.1867 4.07702 11.1867 3.36413C11.1867 2.65124 11.7666 2.07129 12.4795 2.07129C13.1924 2.07129 13.7723 2.65124 13.7723 3.36413C13.7723 4.07702 13.1924 4.65685 12.4795 4.65685Z" fill="#DCB62F"/>
<path d="M7.99938 4.5625C6.10437 4.5625 4.5625 6.10424 4.5625 7.99938C4.5625 9.8944 6.10437 11.4363 7.99938 11.4363C9.89452 11.4363 11.4363 9.8944 11.4363 7.99938C11.4363 6.10424 9.89452 4.5625 7.99938 4.5625V4.5625Z" fill="#DCB62F"/>
<path d="M12.4797 3.00781C12.2842 3.00781 12.125 3.16699 12.125 3.36255C12.125 3.5581 12.2842 3.71728 12.4797 3.71728C12.6754 3.71728 12.8346 3.55823 12.8346 3.36255C12.8346 3.16687 12.6754 3.00781 12.4797 3.00781Z" fill="#DCB62F"/>
</g>
<defs>
<clipPath id="clip0_3840_18434">
<rect width="16" height="16" fill="white"/>
</clipPath>
</defs>
</svg>
